<svg xmlns="http://www.w3.org/2000/svg" xmlns:xlink="http://www.w3.org/1999/xlink" contentStyleType="text/css" height="1014px" preserveAspectRatio="none" style="width:1559px;height:1014px;background:#FFFFFF;" version="1.1" viewBox="0 0 1559 1014" width="1559px" zoomAndPan="magnify"><defs/><g><!--cluster app--><g id="cluster_app"><path d="M8.5,6 L38.9902,6 A3.75,3.75 0 0 1 41.4902,8.5 L48.4902,28.2969 L1524.5,28.2969 A2.5,2.5 0 0 1 1527,30.7969 L1527,1004.67 A2.5,2.5 0 0 1 1524.5,1007.17 L8.5,1007.17 A2.5,2.5 0 0 1 6,1004.67 L6,8.5 A2.5,2.5 0 0 1 8.5,6 " fill="none" style="stroke:#000000;stroke-width:1.5;"/><line style="stroke:#000000;stroke-width:1.5;" x1="6" x2="48.4902" y1="28.2969" y2="28.2969"/><text fill="#000000" font-family="sans-serif" font-size="14" font-weight="bold" lengthAdjust="spacing" textLength="29.4902" x="10" y="20.9951">app</text></g><!--class Game--><g id="elem_Game"><rect codeLine="3" fill="#F1F1F1" height="406.5313" id="Game" rx="2.5" ry="2.5" style="stroke:#181818;stroke-width:0.5;" width="296.4502" x="642.77" y="41"/><ellipse cx="765.9057" cy="57" fill="#ADD1B2" rx="11" ry="11" style="stroke:#181818;stroke-width:1.0;"/><path d="M768.8745,62.6406 Q768.2964,62.9375 767.6557,63.0781 Q767.0151,63.2344 766.312,63.2344 Q763.812,63.2344 762.4839,61.5938 Q761.1714,59.9375 761.1714,56.8125 Q761.1714,53.6875 762.4839,52.0313 Q763.812,50.375 766.312,50.375 Q767.0151,50.375 767.6557,50.5313 Q768.312,50.6875 768.8745,50.9844 L768.8745,53.7031 Q768.2495,53.125 767.6557,52.8594 Q767.062,52.5781 766.437,52.5781 Q765.0932,52.5781 764.4057,53.6563 Q763.7182,54.7188 763.7182,56.8125 Q763.7182,58.9063 764.4057,59.9844 Q765.0932,61.0469 766.437,61.0469 Q767.062,61.0469 767.6557,60.7813 Q768.2495,60.5 768.8745,59.9219 L768.8745,62.6406 Z " fill="#000000"/><text fill="#000000" font-family="sans-serif" font-size="14" lengthAdjust="spacing" textLength="41.6787" x="786.4057" y="61.8467">Game</text><line style="stroke:#181818;stroke-width:0.5;" x1="643.77" x2="938.2202" y1="73" y2="73"/><rect fill="none" height="6" style="stroke:#C82930;stroke-width:1.0;" width="6" x="650.77" y="83.6484"/><text fill="#000000" font-family="sans-serif" font-size="14" lengthAdjust="spacing" textLength="170.6865" x="662.77" y="89.9951">screen: pygame.Surface</text><rect fill="none" height="6" style="stroke:#C82930;stroke-width:1.0;" width="6" x="650.77" y="99.9453"/><text fill="#000000" font-family="sans-serif" font-size="14" lengthAdjust="spacing" textLength="180.5781" x="662.77" y="106.292">clock: pygame.time.Clock</text><rect fill="none" height="6" style="stroke:#C82930;stroke-width:1.0;" width="6" x="650.77" y="116.2422"/><text fill="#000000" font-family="sans-serif" font-size="14" lengthAdjust="spacing" textLength="93.0986" x="662.77" y="122.5889">running: bool</text><rect fill="none" height="6" style="stroke:#C82930;stroke-width:1.0;" width="6" x="650.77" y="132.5391"/><text fill="#000000" font-family="sans-serif" font-size="14" lengthAdjust="spacing" textLength="117.0107" x="662.77" y="138.8857">game_over: bool</text><rect fill="none" height="6" style="stroke:#C82930;stroke-width:1.0;" width="6" x="650.77" y="148.8359"/><text fill="#000000" font-family="sans-serif" font-size="14" lengthAdjust="spacing" textLength="67.9629" x="662.77" y="155.1826">won: bool</text><rect fill="none" height="6" style="stroke:#C82930;stroke-width:1.0;" width="6" x="650.77" y="165.1328"/><text fill="#000000" font-family="sans-serif" font-size="14" lengthAdjust="spacing" textLength="96.7422" x="662.77" y="171.4795">player: Player</text><rect fill="none" height="6" style="stroke:#C82930;stroke-width:1.0;" width="6" x="650.77" y="181.4297"/><text fill="#000000" font-family="sans-serif" font-size="14" lengthAdjust="spacing" textLength="140.4854" x="662.77" y="187.7764">bullets: list&lt;Bullet&gt;</text><rect fill="none" height="6" style="stroke:#C82930;stroke-width:1.0;" width="6" x="650.77" y="197.7266"/><text fill="#000000" font-family="sans-serif" font-size="14" lengthAdjust="spacing" textLength="217.9023" x="662.77" y="204.0732">score_manager: ScoreManager</text><rect fill="none" height="6" style="stroke:#C82930;stroke-width:1.0;" width="6" x="650.77" y="214.0234"/><text fill="#000000" font-family="sans-serif" font-size="14" lengthAdjust="spacing" textLength="209.1455" x="662.77" y="220.3701">alien_manager: AlienManager</text><rect fill="none" height="6" style="stroke:#C82930;stroke-width:1.0;" width="6" x="650.77" y="230.3203"/><text fill="#000000" font-family="sans-serif" font-size="14" lengthAdjust="spacing" textLength="270.4502" x="662.77" y="236.667">power_up_manager: PowerUpManager</text><rect fill="none" height="6" style="stroke:#C82930;stroke-width:1.0;" width="6" x="650.77" y="246.6172"/><text fill="#000000" font-family="sans-serif" font-size="14" lengthAdjust="spacing" textLength="161.6494" x="662.77" y="252.9639">font: pygame.font.Font</text><rect fill="none" height="6" style="stroke:#C82930;stroke-width:1.0;" width="6" x="650.77" y="262.9141"/><text fill="#000000" font-family="sans-serif" font-size="14" lengthAdjust="spacing" textLength="241.7393" x="662.77" y="269.2607">end_game_font: pygame.font.Font</text><rect fill="none" height="6" style="stroke:#C82930;stroke-width:1.0;" width="6" x="650.77" y="279.2109"/><text fill="#000000" font-family="sans-serif" font-size="14" lengthAdjust="spacing" textLength="197.2168" x="662.77" y="285.5576">current_power_up: PowerUp</text><rect fill="none" height="6" style="stroke:#C82930;stroke-width:1.0;" width="6" x="650.77" y="295.5078"/><text fill="#000000" font-family="sans-serif" font-size="14" lengthAdjust="spacing" textLength="128.5225" x="662.77" y="301.8545">last_shot_time: int</text><line style="stroke:#181818;stroke-width:0.5;" x1="643.77" x2="938.2202" y1="309.1563" y2="309.1563"/><ellipse cx="653.77" cy="322.8047" fill="#84BE84" rx="3" ry="3" style="stroke:#038048;stroke-width:1.0;"/><text fill="#000000" font-family="sans-serif" font-size="14" lengthAdjust="spacing" textLength="34.4258" x="662.77" y="326.1514">run()</text><ellipse cx="653.77" cy="339.1016" fill="#84BE84" rx="3" ry="3" style="stroke:#038048;stroke-width:1.0;"/><text fill="#000000" font-family="sans-serif" font-size="14" lengthAdjust="spacing" textLength="112.8066" x="662.77" y="342.4482">handle_events()</text><ellipse cx="653.77" cy="355.3984" fill="#84BE84" rx="3" ry="3" style="stroke:#038048;stroke-width:1.0;"/><text fill="#000000" font-family="sans-serif" font-size="14" lengthAdjust="spacing" textLength="93.4063" x="662.77" y="358.7451">reset_game()</text><ellipse cx="653.77" cy="371.6953" fill="#84BE84" rx="3" ry="3" style="stroke:#038048;stroke-width:1.0;"/><text fill="#000000" font-family="sans-serif" font-size="14" lengthAdjust="spacing" textLength="96.3525" x="662.77" y="375.042">shoot_bullet()</text><ellipse cx="653.77" cy="387.9922" fill="#84BE84" rx="3" ry="3" style="stroke:#038048;stroke-width:1.0;"/><text fill="#000000" font-family="sans-serif" font-size="14" lengthAdjust="spacing" textLength="60.252" x="662.77" y="391.3389">update()</text><ellipse cx="653.77" cy="404.2891" fill="#84BE84" rx="3" ry="3" style="stroke:#038048;stroke-width:1.0;"/><text fill="#000000" font-family="sans-serif" font-size="14" lengthAdjust="spacing" textLength="148.6475" x="662.77" y="407.6357">check_game_status()</text><ellipse cx="653.77" cy="420.5859" fill="#84BE84" rx="3" ry="3" style="stroke:#038048;stroke-width:1.0;"/><text fill="#000000" font-family="sans-serif" font-size="14" lengthAdjust="spacing" textLength="122.7598" x="662.77" y="423.9326">check_collisions()</text><ellipse cx="653.77" cy="436.8828" fill="#84BE84" rx="3" ry="3" style="stroke:#038048;stroke-width:1.0;"/><text fill="#000000" font-family="sans-serif" font-size="14" lengthAdjust="spacing" textLength="45.5957" x="662.77" y="440.2295">draw()</text></g><!--class Player--><g id="elem_Player"><rect codeLine="28" fill="#F1F1F1" height="129.4844" id="Player" rx="2.5" ry="2.5" style="stroke:#181818;stroke-width:0.5;" width="375.2275" x="426.39" y="845.39"/><ellipse cx="587.9711" cy="861.39" fill="#ADD1B2" rx="11" ry="11" style="stroke:#181818;stroke-width:1.0;"/><path d="M590.9398,867.0306 Q590.3617,867.3275 589.7211,867.4681 Q589.0804,867.6244 588.3773,867.6244 Q585.8773,867.6244 584.5492,865.9838 Q583.2367,864.3275 583.2367,861.2025 Q583.2367,858.0775 584.5492,856.4213 Q585.8773,854.765 588.3773,854.765 Q589.0804,854.765 589.7211,854.9213 Q590.3773,855.0775 590.9398,855.3744 L590.9398,858.0931 Q590.3148,857.515 589.7211,857.2494 Q589.1273,856.9681 588.5023,856.9681 Q587.1586,856.9681 586.4711,858.0463 Q585.7836,859.1088 585.7836,861.2025 Q585.7836,863.2963 586.4711,864.3744 Q587.1586,865.4369 588.5023,865.4369 Q589.1273,865.4369 589.7211,865.1713 Q590.3148,864.89 590.9398,864.3119 L590.9398,867.0306 Z " fill="#000000"/><text fill="#000000" font-family="sans-serif" font-size="14" lengthAdjust="spacing" textLength="43.5654" x="608.4711" y="866.2367">Player</text><line style="stroke:#181818;stroke-width:0.5;" x1="427.39" x2="800.6175" y1="877.39" y2="877.39"/><rect fill="none" height="6" style="stroke:#C82930;stroke-width:1.0;" width="6" x="434.39" y="888.0384"/><text fill="#000000" font-family="sans-serif" font-size="14" lengthAdjust="spacing" textLength="167.4463" x="446.39" y="894.3851">image: pygame.Surface</text><rect fill="none" height="6" style="stroke:#C82930;stroke-width:1.0;" width="6" x="434.39" y="904.3353"/><text fill="#000000" font-family="sans-serif" font-size="14" lengthAdjust="spacing" textLength="129.5889" x="446.39" y="910.682">rect: pygame.Rect</text><rect fill="none" height="6" style="stroke:#C82930;stroke-width:1.0;" width="6" x="434.39" y="920.6322"/><text fill="#000000" font-family="sans-serif" font-size="14" lengthAdjust="spacing" textLength="111.46" x="446.39" y="926.9789">shoot_delay: int</text><line style="stroke:#181818;stroke-width:0.5;" x1="427.39" x2="800.6175" y1="934.2806" y2="934.2806"/><ellipse cx="437.39" cy="947.9291" fill="#84BE84" rx="3" ry="3" style="stroke:#038048;stroke-width:1.0;"/><text fill="#000000" font-family="sans-serif" font-size="14" lengthAdjust="spacing" textLength="94.6162" x="446.39" y="951.2757">move(dx: int)</text><ellipse cx="437.39" cy="964.2259" fill="#84BE84" rx="3" ry="3" style="stroke:#038048;stroke-width:1.0;"/><text fill="#000000" font-family="sans-serif" font-size="14" lengthAdjust="spacing" textLength="349.2275" x="446.39" y="967.5726">draw(screen: pygame.Surface, is_invincible: bool)</text></g><!--class Bullet--><g id="elem_Bullet"><rect codeLine="36" fill="#F1F1F1" height="129.4844" id="Bullet" rx="2.5" ry="2.5" style="stroke:#181818;stroke-width:0.5;" width="242.2822" x="1253.86" y="845.39"/><ellipse cx="1350.5714" cy="861.39" fill="#ADD1B2" rx="11" ry="11" style="stroke:#181818;stroke-width:1.0;"/><path d="M1353.5402,867.0306 Q1352.9621,867.3275 1352.3214,867.4681 Q1351.6808,867.6244 1350.9777,867.6244 Q1348.4777,867.6244 1347.1496,865.9838 Q1345.8371,864.3275 1345.8371,861.2025 Q1345.8371,858.0775 1347.1496,856.4213 Q1348.4777,854.765 1350.9777,854.765 Q1351.6808,854.765 1352.3214,854.9213 Q1352.9777,855.0775 1353.5402,855.3744 L1353.5402,858.0931 Q1352.9152,857.515 1352.3214,857.2494 Q1351.7277,856.9681 1351.1027,856.9681 Q1349.7589,856.9681 1349.0714,858.0463 Q1348.3839,859.1088 1348.3839,861.2025 Q1348.3839,863.2963 1349.0714,864.3744 Q1349.7589,865.4369 1351.1027,865.4369 Q1351.7277,865.4369 1352.3214,865.1713 Q1352.9152,864.89 1353.5402,864.3119 L1353.5402,867.0306 Z " fill="#000000"/><text fill="#000000" font-family="sans-serif" font-size="14" lengthAdjust="spacing" textLength="40.3594" x="1371.0714" y="866.2367">Bullet</text><line style="stroke:#181818;stroke-width:0.5;" x1="1254.86" x2="1495.1422" y1="877.39" y2="877.39"/><rect fill="none" height="6" style="stroke:#C82930;stroke-width:1.0;" width="6" x="1261.86" y="888.0384"/><text fill="#000000" font-family="sans-serif" font-size="14" lengthAdjust="spacing" textLength="167.4463" x="1273.86" y="894.3851">image: pygame.Surface</text><rect fill="none" height="6" style="stroke:#C82930;stroke-width:1.0;" width="6" x="1261.86" y="904.3353"/><text fill="#000000" font-family="sans-serif" font-size="14" lengthAdjust="spacing" textLength="129.5889" x="1273.86" y="910.682">rect: pygame.Rect</text><rect fill="none" height="6" style="stroke:#C82930;stroke-width:1.0;" width="6" x="1261.86" y="920.6322"/><text fill="#000000" font-family="sans-serif" font-size="14" lengthAdjust="spacing" textLength="69.7129" x="1273.86" y="926.9789">speed: int</text><line style="stroke:#181818;stroke-width:0.5;" x1="1254.86" x2="1495.1422" y1="934.2806" y2="934.2806"/><ellipse cx="1264.86" cy="947.9291" fill="#84BE84" rx="3" ry="3" style="stroke:#038048;stroke-width:1.0;"/><text fill="#000000" font-family="sans-serif" font-size="14" lengthAdjust="spacing" textLength="60.252" x="1273.86" y="951.2757">update()</text><ellipse cx="1264.86" cy="964.2259" fill="#84BE84" rx="3" ry="3" style="stroke:#038048;stroke-width:1.0;"/><text fill="#000000" font-family="sans-serif" font-size="14" lengthAdjust="spacing" textLength="216.2822" x="1273.86" y="967.5726">draw(screen: pygame.Surface)</text></g><!--class Alien--><g id="elem_Alien"><rect codeLine="44" fill="#F1F1F1" height="162.0781" id="Alien" rx="2.5" ry="2.5" style="stroke:#181818;stroke-width:0.5;" width="242.2822" x="85.86" y="829.09"/><ellipse cx="185.3297" cy="845.09" fill="#ADD1B2" rx="11" ry="11" style="stroke:#181818;stroke-width:1.0;"/><path d="M188.2985,850.7306 Q187.7204,851.0275 187.0797,851.1681 Q186.4391,851.3244 185.736,851.3244 Q183.236,851.3244 181.9079,849.6837 Q180.5954,848.0275 180.5954,844.9025 Q180.5954,841.7775 181.9079,840.1212 Q183.236,838.465 185.736,838.465 Q186.4391,838.465 187.0797,838.6212 Q187.736,838.7775 188.2985,839.0744 L188.2985,841.7931 Q187.6735,841.215 187.0797,840.9494 Q186.486,840.6681 185.861,840.6681 Q184.5172,840.6681 183.8297,841.7462 Q183.1422,842.8087 183.1422,844.9025 Q183.1422,846.9962 183.8297,848.0744 Q184.5172,849.1369 185.861,849.1369 Q186.486,849.1369 187.0797,848.8712 Q187.6735,848.59 188.2985,848.0119 L188.2985,850.7306 Z " fill="#000000"/><text fill="#000000" font-family="sans-serif" font-size="14" lengthAdjust="spacing" textLength="34.8428" x="205.8297" y="849.9367">Alien</text><line style="stroke:#181818;stroke-width:0.5;" x1="86.86" x2="327.1422" y1="861.09" y2="861.09"/><rect fill="none" height="6" style="stroke:#C82930;stroke-width:1.0;" width="6" x="93.86" y="871.7384"/><text fill="#000000" font-family="sans-serif" font-size="14" lengthAdjust="spacing" textLength="167.4463" x="105.86" y="878.0851">image: pygame.Surface</text><rect fill="none" height="6" style="stroke:#C82930;stroke-width:1.0;" width="6" x="93.86" y="888.0353"/><text fill="#000000" font-family="sans-serif" font-size="14" lengthAdjust="spacing" textLength="129.5889" x="105.86" y="894.382">rect: pygame.Rect</text><rect fill="none" height="6" style="stroke:#C82930;stroke-width:1.0;" width="6" x="93.86" y="904.3322"/><text fill="#000000" font-family="sans-serif" font-size="14" lengthAdjust="spacing" textLength="69.7129" x="105.86" y="910.6789">speed: int</text><rect fill="none" height="6" style="stroke:#C82930;stroke-width:1.0;" width="6" x="93.86" y="920.6291"/><text fill="#000000" font-family="sans-serif" font-size="14" lengthAdjust="spacing" textLength="119.8887" x="105.86" y="926.9757">is_dropping: bool</text><line style="stroke:#181818;stroke-width:0.5;" x1="86.86" x2="327.1422" y1="934.2775" y2="934.2775"/><ellipse cx="96.86" cy="947.9259" fill="#84BE84" rx="3" ry="3" style="stroke:#038048;stroke-width:1.0;"/><text fill="#000000" font-family="sans-serif" font-size="14" lengthAdjust="spacing" textLength="149.3311" x="105.86" y="951.2726">update(direction: int)</text><ellipse cx="96.86" cy="964.2228" fill="#84BE84" rx="3" ry="3" style="stroke:#038048;stroke-width:1.0;"/><text fill="#000000" font-family="sans-serif" font-size="14" lengthAdjust="spacing" textLength="87.7939" x="105.86" y="967.5695">drop_down()</text><ellipse cx="96.86" cy="980.5197" fill="#84BE84" rx="3" ry="3" style="stroke:#038048;stroke-width:1.0;"/><text fill="#000000" font-family="sans-serif" font-size="14" lengthAdjust="spacing" textLength="216.2822" x="105.86" y="983.8664">draw(screen: pygame.Surface)</text></g><!--class AlienManager--><g id="elem_AlienManager"><rect codeLine="54" fill="#F1F1F1" height="178.375" id="AlienManager" rx="2.5" ry="2.5" style="stroke:#181818;stroke-width:0.5;" width="240.4092" x="21.8" y="541.12"/><ellipse cx="89.6501" cy="557.12" fill="#ADD1B2" rx="11" ry="11" style="stroke:#181818;stroke-width:1.0;"/><path d="M92.6188,562.7606 Q92.0407,563.0575 91.4001,563.1981 Q90.7595,563.3544 90.0563,563.3544 Q87.5563,563.3544 86.2282,561.7138 Q84.9157,560.0575 84.9157,556.9325 Q84.9157,553.8075 86.2282,552.1513 Q87.5563,550.495 90.0563,550.495 Q90.7595,550.495 91.4001,550.6513 Q92.0563,550.8075 92.6188,551.1044 L92.6188,553.8231 Q91.9938,553.245 91.4001,552.9794 Q90.8063,552.6981 90.1813,552.6981 Q88.8376,552.6981 88.1501,553.7763 Q87.4626,554.8388 87.4626,556.9325 Q87.4626,559.0263 88.1501,560.1044 Q88.8376,561.1669 90.1813,561.1669 Q90.8063,561.1669 91.4001,560.9013 Q91.9938,560.62 92.6188,560.0419 L92.6188,562.7606 Z " fill="#000000"/><text fill="#000000" font-family="sans-serif" font-size="14" lengthAdjust="spacing" textLength="96.209" x="110.1501" y="561.9667">AlienManager</text><line style="stroke:#181818;stroke-width:0.5;" x1="22.8" x2="261.2092" y1="573.12" y2="573.12"/><rect fill="none" height="6" style="stroke:#C82930;stroke-width:1.0;" width="6" x="29.8" y="583.7684"/><text fill="#000000" font-family="sans-serif" font-size="14" lengthAdjust="spacing" textLength="129.1719" x="41.8" y="590.1151">aliens: list&lt;Alien&gt;</text><rect fill="none" height="6" style="stroke:#C82930;stroke-width:1.0;" width="6" x="29.8" y="600.0653"/><text fill="#000000" font-family="sans-serif" font-size="14" lengthAdjust="spacing" textLength="89.0791" x="41.8" y="606.412">direction: int</text><line style="stroke:#181818;stroke-width:0.5;" x1="22.8" x2="261.2092" y1="613.7138" y2="613.7138"/><ellipse cx="32.8" cy="627.3622" fill="#84BE84" rx="3" ry="3" style="stroke:#038048;stroke-width:1.0;"/><text fill="#000000" font-family="sans-serif" font-size="14" lengthAdjust="spacing" textLength="103.8105" x="41.8" y="630.7089">create_aliens()</text><ellipse cx="32.8" cy="643.6591" fill="#84BE84" rx="3" ry="3" style="stroke:#038048;stroke-width:1.0;"/><text fill="#000000" font-family="sans-serif" font-size="14" lengthAdjust="spacing" textLength="166.4824" x="41.8" y="647.0057">spawn_dropping_alien()</text><ellipse cx="32.8" cy="659.9559" fill="#84BE84" rx="3" ry="3" style="stroke:#038048;stroke-width:1.0;"/><text fill="#000000" font-family="sans-serif" font-size="14" lengthAdjust="spacing" textLength="108.3906" x="41.8" y="663.3026">update_aliens()</text><ellipse cx="32.8" cy="676.2528" fill="#84BE84" rx="3" ry="3" style="stroke:#038048;stroke-width:1.0;"/><text fill="#000000" font-family="sans-serif" font-size="14" lengthAdjust="spacing" textLength="214.4092" x="41.8" y="679.5995">check_alien_reached_bottom()</text><ellipse cx="32.8" cy="692.5497" fill="#84BE84" rx="3" ry="3" style="stroke:#038048;stroke-width:1.0;"/><text fill="#000000" font-family="sans-serif" font-size="14" lengthAdjust="spacing" textLength="183.0938" x="41.8" y="695.8964">remove_alien(alien: Alien)</text><ellipse cx="32.8" cy="708.8466" fill="#84BE84" rx="3" ry="3" style="stroke:#038048;stroke-width:1.0;"/><text fill="#000000" font-family="sans-serif" font-size="14" lengthAdjust="spacing" textLength="145.0313" x="41.8" y="712.1932">all_aliens_defeated()</text></g><!--class PowerUp--><g id="elem_PowerUp"><rect codeLine="65" fill="#F1F1F1" height="145.7813" id="PowerUp" rx="2.5" ry="2.5" style="stroke:#181818;stroke-width:0.5;" width="242.2822" x="961.86" y="837.24"/><ellipse cx="1047.7706" cy="853.24" fill="#ADD1B2" rx="11" ry="11" style="stroke:#181818;stroke-width:1.0;"/><path d="M1050.7394,858.8806 Q1050.1613,859.1775 1049.5206,859.3181 Q1048.88,859.4744 1048.1769,859.4744 Q1045.6769,859.4744 1044.3488,857.8337 Q1043.0363,856.1775 1043.0363,853.0525 Q1043.0363,849.9275 1044.3488,848.2712 Q1045.6769,846.615 1048.1769,846.615 Q1048.88,846.615 1049.5206,846.7712 Q1050.1769,846.9275 1050.7394,847.2244 L1050.7394,849.9431 Q1050.1144,849.365 1049.5206,849.0994 Q1048.9269,848.8181 1048.3019,848.8181 Q1046.9581,848.8181 1046.2706,849.8962 Q1045.5831,850.9587 1045.5831,853.0525 Q1045.5831,855.1462 1046.2706,856.2244 Q1046.9581,857.2869 1048.3019,857.2869 Q1048.9269,857.2869 1049.5206,857.0212 Q1050.1144,856.74 1050.7394,856.1619 L1050.7394,858.8806 Z " fill="#000000"/><text fill="#000000" font-family="sans-serif" font-size="14" lengthAdjust="spacing" textLength="61.9609" x="1068.2706" y="858.0867">PowerUp</text><line style="stroke:#181818;stroke-width:0.5;" x1="962.86" x2="1203.1422" y1="869.24" y2="869.24"/><rect fill="none" height="6" style="stroke:#C82930;stroke-width:1.0;" width="6" x="969.86" y="879.8884"/><text fill="#000000" font-family="sans-serif" font-size="14" lengthAdjust="spacing" textLength="167.4463" x="981.86" y="886.2351">image: pygame.Surface</text><rect fill="none" height="6" style="stroke:#C82930;stroke-width:1.0;" width="6" x="969.86" y="896.1853"/><text fill="#000000" font-family="sans-serif" font-size="14" lengthAdjust="spacing" textLength="129.5889" x="981.86" y="902.532">rect: pygame.Rect</text><rect fill="none" height="6" style="stroke:#C82930;stroke-width:1.0;" width="6" x="969.86" y="912.4822"/><text fill="#000000" font-family="sans-serif" font-size="14" lengthAdjust="spacing" textLength="43.9893" x="981.86" y="918.8289">vy: int</text><rect fill="none" height="6" style="stroke:#C82930;stroke-width:1.0;" width="6" x="969.86" y="928.7791"/><text fill="#000000" font-family="sans-serif" font-size="14" lengthAdjust="spacing" textLength="81.6279" x="981.86" y="935.1257">active: bool</text><line style="stroke:#181818;stroke-width:0.5;" x1="962.86" x2="1203.1422" y1="942.4275" y2="942.4275"/><ellipse cx="972.86" cy="956.0759" fill="#84BE84" rx="3" ry="3" style="stroke:#038048;stroke-width:1.0;"/><text fill="#000000" font-family="sans-serif" font-size="14" lengthAdjust="spacing" textLength="60.252" x="981.86" y="959.4226">update()</text><ellipse cx="972.86" cy="972.3728" fill="#84BE84" rx="3" ry="3" style="stroke:#038048;stroke-width:1.0;"/><text fill="#000000" font-family="sans-serif" font-size="14" lengthAdjust="spacing" textLength="216.2822" x="981.86" y="975.7195">draw(screen: pygame.Surface)</text></g><!--class PowerUpManager--><g id="elem_PowerUpManager"><rect codeLine="74" fill="#F1F1F1" height="243.5625" id="PowerUpManager" rx="2.5" ry="2.5" style="stroke:#181818;stroke-width:0.5;" width="307.7363" x="929.13" y="508.53"/><ellipse cx="1017.0846" cy="524.53" fill="#ADD1B2" rx="11" ry="11" style="stroke:#181818;stroke-width:1.0;"/><path d="M1020.0533,530.1706 Q1019.4752,530.4675 1018.8346,530.6081 Q1018.194,530.7644 1017.4908,530.7644 Q1014.9908,530.7644 1013.6627,529.1238 Q1012.3502,527.4675 1012.3502,524.3425 Q1012.3502,521.2175 1013.6627,519.5613 Q1014.9908,517.905 1017.4908,517.905 Q1018.194,517.905 1018.8346,518.0613 Q1019.4908,518.2175 1020.0533,518.5144 L1020.0533,521.2331 Q1019.4283,520.655 1018.8346,520.3894 Q1018.2408,520.1081 1017.6158,520.1081 Q1016.2721,520.1081 1015.5846,521.1863 Q1014.8971,522.2488 1014.8971,524.3425 Q1014.8971,526.4363 1015.5846,527.5144 Q1016.2721,528.5769 1017.6158,528.5769 Q1018.2408,528.5769 1018.8346,528.3113 Q1019.4283,528.03 1020.0533,527.4519 L1020.0533,530.1706 Z " fill="#000000"/><text fill="#000000" font-family="sans-serif" font-size="14" lengthAdjust="spacing" textLength="123.3271" x="1037.5846" y="529.3767">PowerUpManager</text><line style="stroke:#181818;stroke-width:0.5;" x1="930.13" x2="1235.8663" y1="540.53" y2="540.53"/><rect fill="none" height="6" style="stroke:#C82930;stroke-width:1.0;" width="6" x="937.13" y="551.1784"/><text fill="#000000" font-family="sans-serif" font-size="14" lengthAdjust="spacing" textLength="145.291" x="949.13" y="557.5251">active_power_up: str</text><rect fill="none" height="6" style="stroke:#C82930;stroke-width:1.0;" width="6" x="937.13" y="567.4753"/><text fill="#000000" font-family="sans-serif" font-size="14" lengthAdjust="spacing" textLength="167.4531" x="949.13" y="573.822">power_up_end_time: int</text><rect fill="none" height="6" style="stroke:#C82930;stroke-width:1.0;" width="6" x="937.13" y="583.7722"/><text fill="#000000" font-family="sans-serif" font-size="14" lengthAdjust="spacing" textLength="165.6553" x="949.13" y="590.1189">power_up_message: str</text><rect fill="none" height="6" style="stroke:#C82930;stroke-width:1.0;" width="6" x="937.13" y="600.0691"/><text fill="#000000" font-family="sans-serif" font-size="14" lengthAdjust="spacing" textLength="195.8906" x="949.13" y="606.4157">show_expiry_message: bool</text><rect fill="none" height="6" style="stroke:#C82930;stroke-width:1.0;" width="6" x="937.13" y="616.3659"/><text fill="#000000" font-family="sans-serif" font-size="14" lengthAdjust="spacing" textLength="219.29" x="949.13" y="622.7126">expiry_message_start_time: int</text><rect fill="none" height="6" style="stroke:#C82930;stroke-width:1.0;" width="6" x="937.13" y="632.6628"/><text fill="#000000" font-family="sans-serif" font-size="14" lengthAdjust="spacing" textLength="124.0449" x="949.13" y="639.0095">is_invincible: bool</text><line style="stroke:#181818;stroke-width:0.5;" x1="930.13" x2="1235.8663" y1="646.3113" y2="646.3113"/><ellipse cx="940.13" cy="659.9597" fill="#84BE84" rx="3" ry="3" style="stroke:#038048;stroke-width:1.0;"/><text fill="#000000" font-family="sans-serif" font-size="14" lengthAdjust="spacing" textLength="202.166" x="949.13" y="663.3064">spawn_power_up(): PowerUp</text><ellipse cx="940.13" cy="676.2566" fill="#84BE84" rx="3" ry="3" style="stroke:#038048;stroke-width:1.0;"/><text fill="#000000" font-family="sans-serif" font-size="14" lengthAdjust="spacing" textLength="281.7363" x="949.13" y="679.6032">activate_power_up(power_up: PowerUp)</text><ellipse cx="940.13" cy="692.5534" fill="#84BE84" rx="3" ry="3" style="stroke:#038048;stroke-width:1.0;"/><text fill="#000000" font-family="sans-serif" font-size="14" lengthAdjust="spacing" textLength="160.0771" x="949.13" y="695.9001">deactivate_power_up()</text><ellipse cx="940.13" cy="708.8503" fill="#84BE84" rx="3" ry="3" style="stroke:#038048;stroke-width:1.0;"/><text fill="#000000" font-family="sans-serif" font-size="14" lengthAdjust="spacing" textLength="259.499" x="949.13" y="712.197">handle_active_effects(player: Player)</text><ellipse cx="940.13" cy="725.1472" fill="#84BE84" rx="3" ry="3" style="stroke:#038048;stroke-width:1.0;"/><text fill="#000000" font-family="sans-serif" font-size="14" lengthAdjust="spacing" textLength="111.8428" x="949.13" y="728.4939">check_expired()</text><ellipse cx="940.13" cy="741.4441" fill="#84BE84" rx="3" ry="3" style="stroke:#038048;stroke-width:1.0;"/><text fill="#000000" font-family="sans-serif" font-size="14" lengthAdjust="spacing" textLength="180.8857" x="949.13" y="744.7907">update_expiry_message()</text></g><!--class ScoreManager--><g id="elem_ScoreManager"><rect codeLine="89" fill="#F1F1F1" height="129.4844" id="ScoreManager" rx="2.5" ry="2.5" style="stroke:#181818;stroke-width:0.5;" width="201.5947" x="1272.2" y="565.57"/><ellipse cx="1318.305" cy="581.57" fill="#ADD1B2" rx="11" ry="11" style="stroke:#181818;stroke-width:1.0;"/><path d="M1321.2737,587.2106 Q1320.6956,587.5075 1320.055,587.6481 Q1319.4144,587.8044 1318.7112,587.8044 Q1316.2112,587.8044 1314.8831,586.1637 Q1313.5706,584.5075 1313.5706,581.3825 Q1313.5706,578.2575 1314.8831,576.6012 Q1316.2112,574.945 1318.7112,574.945 Q1319.4144,574.945 1320.055,575.1012 Q1320.7112,575.2575 1321.2737,575.5544 L1321.2737,578.2731 Q1320.6487,577.695 1320.055,577.4294 Q1319.4612,577.1481 1318.8362,577.1481 Q1317.4925,577.1481 1316.805,578.2262 Q1316.1175,579.2887 1316.1175,581.3825 Q1316.1175,583.4762 1316.805,584.5544 Q1317.4925,585.6169 1318.8362,585.6169 Q1319.4612,585.6169 1320.055,585.3512 Q1320.6487,585.07 1321.2737,584.4919 L1321.2737,587.2106 Z " fill="#000000"/><text fill="#000000" font-family="sans-serif" font-size="14" lengthAdjust="spacing" textLength="100.8848" x="1338.805" y="586.4167">ScoreManager</text><line style="stroke:#181818;stroke-width:0.5;" x1="1273.2" x2="1472.7947" y1="597.57" y2="597.57"/><rect fill="none" height="6" style="stroke:#C82930;stroke-width:1.0;" width="6" x="1280.2" y="608.2184"/><text fill="#000000" font-family="sans-serif" font-size="14" lengthAdjust="spacing" textLength="123.4023" x="1292.2" y="614.5651">current_score: int</text><rect fill="none" height="6" style="stroke:#C82930;stroke-width:1.0;" width="6" x="1280.2" y="624.5153"/><text fill="#000000" font-family="sans-serif" font-size="14" lengthAdjust="spacing" textLength="102.8672" x="1292.2" y="630.862">high_score: int</text><line style="stroke:#181818;stroke-width:0.5;" x1="1273.2" x2="1472.7947" y1="638.1637" y2="638.1637"/><ellipse cx="1283.2" cy="651.8122" fill="#84BE84" rx="3" ry="3" style="stroke:#038048;stroke-width:1.0;"/><text fill="#000000" font-family="sans-serif" font-size="14" lengthAdjust="spacing" textLength="175.5947" x="1292.2" y="655.1589">update_score(points: int)</text><ellipse cx="1283.2" cy="668.1091" fill="#84BE84" rx="3" ry="3" style="stroke:#038048;stroke-width:1.0;"/><text fill="#000000" font-family="sans-serif" font-size="14" lengthAdjust="spacing" textLength="126.1436" x="1292.2" y="671.4557">save_high_score()</text><ellipse cx="1283.2" cy="684.4059" fill="#84BE84" rx="3" ry="3" style="stroke:#038048;stroke-width:1.0;"/><text fill="#000000" font-family="sans-serif" font-size="14" lengthAdjust="spacing" textLength="91.6152" x="1292.2" y="687.7526">reset_score()</text></g><!--class GameRenderer--><g id="elem_GameRenderer"><rect codeLine="97" fill="#F1F1F1" height="162.0781" id="GameRenderer" rx="2.5" ry="2.5" style="stroke:#181818;stroke-width:0.5;" width="559.9482" x="334.03" y="549.27"/><ellipse cx="556.4953" cy="565.27" fill="#ADD1B2" rx="11" ry="11" style="stroke:#181818;stroke-width:1.0;"/><path d="M559.4641,570.9106 Q558.886,571.2075 558.2453,571.3481 Q557.6047,571.5044 556.9016,571.5044 Q554.4016,571.5044 553.0735,569.8638 Q551.761,568.2075 551.761,565.0825 Q551.761,561.9575 553.0735,560.3013 Q554.4016,558.645 556.9016,558.645 Q557.6047,558.645 558.2453,558.8013 Q558.9016,558.9575 559.4641,559.2544 L559.4641,561.9731 Q558.8391,561.395 558.2453,561.1294 Q557.6516,560.8481 557.0266,560.8481 Q555.6828,560.8481 554.9953,561.9263 Q554.3078,562.9888 554.3078,565.0825 Q554.3078,567.1763 554.9953,568.2544 Q555.6828,569.3169 557.0266,569.3169 Q557.6516,569.3169 558.2453,569.0513 Q558.8391,568.77 559.4641,568.1919 L559.4641,570.9106 Z " fill="#000000"/><text fill="#000000" font-family="sans-serif" font-size="14" lengthAdjust="spacing" textLength="106.5176" x="576.9953" y="570.1167">GameRenderer</text><line style="stroke:#181818;stroke-width:0.5;" x1="335.03" x2="892.9782" y1="581.27" y2="581.27"/><rect fill="none" height="6" style="stroke:#C82930;stroke-width:1.0;" width="6" x="342.03" y="591.9184"/><text fill="#000000" font-family="sans-serif" font-size="14" lengthAdjust="spacing" textLength="170.6865" x="354.03" y="598.2651">screen: pygame.Surface</text><rect fill="none" height="6" style="stroke:#C82930;stroke-width:1.0;" width="6" x="342.03" y="608.2153"/><text fill="#000000" font-family="sans-serif" font-size="14" lengthAdjust="spacing" textLength="161.6494" x="354.03" y="614.562">font: pygame.font.Font</text><rect fill="none" height="6" style="stroke:#C82930;stroke-width:1.0;" width="6" x="342.03" y="624.5122"/><text fill="#000000" font-family="sans-serif" font-size="14" lengthAdjust="spacing" textLength="241.7393" x="354.03" y="630.8589">end_game_font: pygame.font.Font</text><line style="stroke:#181818;stroke-width:0.5;" x1="335.03" x2="892.9782" y1="638.1606" y2="638.1606"/><ellipse cx="345.03" cy="651.8091" fill="#84BE84" rx="3" ry="3" style="stroke:#038048;stroke-width:1.0;"/><text fill="#000000" font-family="sans-serif" font-size="14" lengthAdjust="spacing" textLength="533.9482" x="354.03" y="655.1557">draw_game_objects(player: Player, bullets: list&lt;Bullet&gt;, aliens: list&lt;Alien&gt;)</text><ellipse cx="345.03" cy="668.1059" fill="#84BE84" rx="3" ry="3" style="stroke:#038048;stroke-width:1.0;"/><text fill="#000000" font-family="sans-serif" font-size="14" lengthAdjust="spacing" textLength="325.6914" x="354.03" y="671.4526">draw_score(current_score: int, high_score: int)</text><ellipse cx="345.03" cy="684.4028" fill="#84BE84" rx="3" ry="3" style="stroke:#038048;stroke-width:1.0;"/><text fill="#000000" font-family="sans-serif" font-size="14" lengthAdjust="spacing" textLength="130.5322" x="354.03" y="687.7495">draw_game_over()</text><ellipse cx="345.03" cy="700.6997" fill="#84BE84" rx="3" ry="3" style="stroke:#038048;stroke-width:1.0;"/><text fill="#000000" font-family="sans-serif" font-size="14" lengthAdjust="spacing" textLength="146.7266" x="354.03" y="704.0464">draw_win_message()</text></g><!--link Game to Player--><g id="link_Game_Player"><path codeLine="107" d="M642.56,283.61 C531.32,320.99 386.76,389.98 317,508.53 C289.55,555.18 289.07,705.73 317,752.09 C342.28,794.06 377.6612,822.5566 420.8912,845.7166 " fill="none" id="Game-to-Player" style="stroke:#181818;stroke-width:1.0;"/><polygon fill="#181818" points="426.18,848.55,420.1357,840.774,421.7726,846.1888,416.3578,847.8257,426.18,848.55" style="stroke:#181818;stroke-width:1.0;"/></g><!--link Game to Bullet--><g id="link_Game_Bullet"><path codeLine="108" d="M939.38,253.75 C1105.35,272.11 1367.12,329.58 1491,508.53 C1552.62,597.53 1524.86,649.27 1491,752.09 C1479.87,785.9 1462.1242,813.7258 1440.6242,840.2958 " fill="none" id="Game-to-Bullet" style="stroke:#181818;stroke-width:1.0;"/><polygon fill="#181818" points="1436.85,844.96,1445.6208,840.4798,1439.9952,841.0731,1439.4018,835.4475,1436.85,844.96" style="stroke:#181818;stroke-width:1.0;"/></g><!--link Game to AlienManager--><g id="link_Game_AlienManager"><path codeLine="109" d="M642.44,297.28 C538.23,337.65 398.53,399.77 289,477.53 C263.57,495.58 243.0068,514.0725 221.2868,536.4725 " fill="none" id="Game-to-AlienManager" style="stroke:#181818;stroke-width:1.0;"/><polygon fill="#181818" points="217.11,540.78,226.2468,537.1032,220.5906,537.1904,220.5035,531.5342,217.11,540.78" style="stroke:#181818;stroke-width:1.0;"/></g><!--link Game to ScoreManager--><g id="link_Game_ScoreManager"><path codeLine="110" d="M939.54,316.36 C1033.71,364.59 1155.82,433.13 1254,508.53 C1275.83,525.29 1293.4167,541.6092 1312.2367,561.0492 " fill="none" id="Game-to-ScoreManager" style="stroke:#181818;stroke-width:1.0;"/><polygon fill="#181818" points="1316.41,565.36,1313.0239,556.1115,1312.9322,561.7676,1307.2761,561.676,1316.41,565.36" style="stroke:#181818;stroke-width:1.0;"/></g><!--link Game to PowerUpManager--><g id="link_Game_PowerUpManager"><path codeLine="111" d="M939.57,440.66 C957.04,463.64 970.8285,481.7738 987.1985,503.3038 " fill="none" id="Game-to-PowerUpManager" style="stroke:#181818;stroke-width:1.0;"/><polygon fill="#181818" points="990.83,508.08,988.5669,498.4947,987.8037,504.0998,982.1986,503.3367,990.83,508.08" style="stroke:#181818;stroke-width:1.0;"/></g><!--link Game to GameRenderer--><g id="link_Game_GameRenderer"><path codeLine="112" d="M697.58,447.97 C681.04,483.85 667.2418,513.7911 653.4818,543.6411 " fill="none" id="Game-to-GameRenderer" style="stroke:#181818;stroke-width:1.0;"/><polygon fill="#181818" points="650.97,549.09,658.3703,542.5911,653.0632,544.5492,651.1051,539.2421,650.97,549.09" style="stroke:#181818;stroke-width:1.0;"/></g><!--link AlienManager to Alien--><g id="link_AlienManager_Alien"><path codeLine="114" d="M162.75,719.98 C170.92,754.91 178.8737,788.9076 186.8437,822.9876 " fill="none" id="AlienManager-to-Alien" style="stroke:#181818;stroke-width:1.0;"/><polygon fill="#181818" points="188.21,828.83,190.0555,819.1556,187.0714,823.9614,182.2656,820.9773,188.21,828.83" style="stroke:#181818;stroke-width:1.0;"/></g><!--link PowerUpManager to PowerUp--><g id="link_PowerUpManager_PowerUp"><path codeLine="115" d="M1083,752.36 C1083,781.16 1083,805.01 1083,830.84 " fill="none" id="PowerUpManager-to-PowerUp" style="stroke:#181818;stroke-width:1.0;"/><polygon fill="#181818" points="1083,836.84,1087,827.84,1083,831.84,1079,827.84,1083,836.84" style="stroke:#181818;stroke-width:1.0;"/></g><!--link PowerUpManager to Player--><g id="link_PowerUpManager_Player"><path codeLine="116" d="M928.9,740.89 C922.9,744.72 916.91,748.47 911,752.09 C857.52,784.83 801.9217,815.0081 749.2217,842.2081 " fill="none" id="PowerUpManager-to-Player" style="stroke:#181818;stroke-width:1.0;"/><polygon fill="#181818" points="743.89,844.96,753.7222,844.3867,748.3331,842.6668,750.053,837.2777,743.89,844.96" style="stroke:#181818;stroke-width:1.0;"/><text fill="#000000" font-family="sans-serif" font-size="13" lengthAdjust="spacing" textLength="140.9878" x="856" y="795.1569">handle_active_effects</text></g><!--link GameRenderer to Player--><g id="link_GameRenderer_Player"><path codeLine="117" d="M614,711.67 C614,754.14 614,799.54 614,839.25 " fill="none" id="GameRenderer-to-Player" style="stroke:#181818;stroke-width:1.0;"/><polygon fill="#181818" points="614,845.25,618,836.25,614,840.25,610,836.25,614,845.25" style="stroke:#181818;stroke-width:1.0;"/></g><!--link GameRenderer to Bullet--><g id="link_GameRenderer_Bullet"><path codeLine="118" d="M691,711.82 C727.64,744.85 774.09,779.8 823,799.09 C988.43,864.35 1051.02,780.2 1222,829.09 C1236.41,833.21 1245.5433,836.3518 1259.7333,842.6318 " fill="none" id="GameRenderer-to-Bullet" style="stroke:#181818;stroke-width:1.0;"/><polygon fill="#181818" points="1265.22,845.06,1258.6088,837.7599,1260.6478,843.0365,1255.3712,845.0755,1265.22,845.06" style="stroke:#181818;stroke-width:1.0;"/></g><!--link GameRenderer to Alien--><g id="link_GameRenderer_Alien"><path codeLine="119" d="M496.28,711.67 C442.4,748.45 383.6558,788.5477 329.7658,825.3277 " fill="none" id="GameRenderer-to-Alien" style="stroke:#181818;stroke-width:1.0;"/><polygon fill="#181818" points="324.81,828.71,334.4986,826.9404,328.9398,825.8914,329.9888,820.3326,324.81,828.71" style="stroke:#181818;stroke-width:1.0;"/></g><!--SRC=[jLRDRXiX4BxdALOvsOgT1x2gI6sbzbGfIjGpmhjZcne30jORg_AxTu0rXeKaKflwi1Opmp2_tuoYxPvkeRcbIjqslszk6lord1hJVAS7G4ep_fQDQJM0M3Ngj4NM_NElDxI5HA3bijr7lcNu-Uf8YOZkXM1YkshMKlA4xcuGUGHTS0Of2fhYzEH47_r_mbZtd8CrguOpOpzzyQU7p0MfWHoeG9_n_hCx_WYdH8fo1k8gzTaTIoab1z2aLrV1HqVvgKhHZHGsniKTxh_X9n40qH4VWdSbsrvh49PSNe-l9ZAOFalCJbhYSh1gMABXpgLWDa_EEoew3WIEgDPa70q6hBSh8wDcL1r2dJ5wrL6RoxOxQFV1DMEfxKs5sqgEwM9IvCnEqs4adDEw34dFAfCTCE1l5AQ6zXhL9poa9U6zwG2rJYDrm8ASTI-UN5XMxuP5mmnXuiX4ozOSGkLMd0Yb-N5EA81kQdub7MzONZ7I5_x_j77fejLfgLI92T7-ZZcjpC50aGUfI2S7yQy-ZXsRkUf1u88aNYe5ajoejAGreD4atCxRHj51H6-3HALzQbT3dmHOGlruxCXQMYiFatvr5JjgzjyHl58Xoldu11RznXdRLRiieCg7PVzucgQUOloEy5hM_pwZEGhdEVLF9jXfR1NH7HoNq9b2FXZZOv4hG2mP2BmefazNaSdiojaE5RMjFbO1agAQBWRDvkKSk0lkkfAAOiNKoC8CvONAe1Y329iDPjZCybbSLgttDzPOLkbvA6fLc0xeB9ENCUW7-ZHoExRTrJZnOS_3O23J5AXYA7ftLL6PY2dzF5sPdh1uG4_CVNTr-h0D8NHB49NhNvKKBUfRqgA6UDCk75qlex-O1drUjmWtlAAroS14lGZy2hfSFgIBNgG5ktDQiQf5Jh7gNNMNMrlafGaD9cNp8ZxfMHFWINI_oWwhpAhUMj6KM5ALK6IyIKWoNh3p_0S0]--></g></svg>